<svg width="48" height="48" viewBox="0 0 48 48" fill="none" xmlns="http://www.w3.org/2000/svg">
<g clip-path="url(#clip0_204_1849)">
<path d="M40.6404 8.29688C39.1092 7.60938 37.5232 7.00781 35.8826 6.49219C34.242 5.97656 32.5623 5.57812 30.8436 5.29688C30.8123 5.26562 30.7889 5.25781 30.7732 5.27344C30.7576 5.28906 30.7342 5.3125 30.7029 5.34375C30.4842 5.71875 30.2654 6.13281 30.0467 6.58594C29.8279 7.03906 29.6404 7.46875 29.4842 7.875C27.6404 7.59375 25.8045 7.45312 23.9764 7.45312C22.1482 7.45312 20.3279 7.59375 18.5154 7.875C18.3592 7.46875 18.1639 7.03906 17.9295 6.58594C17.6951 6.13281 17.4842 5.71875 17.2967 5.34375C17.2654 5.3125 17.2342 5.29688 17.2029 5.29688C17.1717 5.29688 17.1404 5.29688 17.1092 5.29688C15.3904 5.57812 13.7186 5.97656 12.0936 6.49219C10.4686 7.00781 8.89043 7.60938 7.35918 8.29688C7.32793 8.29688 7.3123 8.30469 7.3123 8.32031C7.3123 8.33594 7.3123 8.34375 7.3123 8.34375C5.7498 10.6875 4.45293 13 3.42168 15.2812C2.42168 17.5938 1.64824 19.8828 1.10137 22.1484C0.554492 24.4141 0.218555 26.6875 0.0935547 28.9688C-0.0314453 31.2188 -0.000195306 33.4531 0.187305 35.6719C0.187305 35.7031 0.195117 35.7266 0.210742 35.7422C0.226367 35.7578 0.249805 35.7812 0.281055 35.8125C2.3123 37.3125 4.32793 38.5469 6.32793 39.5156C8.32793 40.4844 10.2967 41.2656 12.2342 41.8594C12.2654 41.8594 12.2967 41.8594 12.3279 41.8594C12.3592 41.8594 12.3904 41.8438 12.4217 41.8125C12.8904 41.1875 13.3279 40.5391 13.7342 39.8672C14.1404 39.1953 14.5154 38.5156 14.8592 37.8281C14.8904 37.7656 14.8982 37.7188 14.8826 37.6875C14.867 37.6562 14.8279 37.625 14.7654 37.5938C14.1092 37.3438 13.4764 37.0703 12.867 36.7734C12.2576 36.4766 11.6561 36.1562 11.0623 35.8125C10.9998 35.7812 10.9686 35.7422 10.9686 35.6953C10.9686 35.6484 10.9842 35.6094 11.0154 35.5781C11.1404 35.4844 11.2654 35.3828 11.3904 35.2734C11.5154 35.1641 11.6404 35.0625 11.7654 34.9688C11.7967 34.9688 11.8279 34.9609 11.8592 34.9453C11.8904 34.9297 11.9061 34.9375 11.9061 34.9688C13.8748 35.8438 15.8748 36.5156 17.9061 36.9844C19.9373 37.4219 21.9764 37.6406 24.0232 37.6406C26.0701 37.6406 28.0936 37.4219 30.0936 36.9844C32.1248 36.5156 34.1092 35.8438 36.0467 34.9688C36.0779 34.9375 36.1092 34.9297 36.1404 34.9453C36.1717 34.9609 36.1873 34.9688 36.1873 34.9688C36.3123 35.0625 36.4373 35.1641 36.5623 35.2734C36.6873 35.3828 36.8123 35.4844 36.9373 35.5781C36.9998 35.6094 37.0232 35.6484 37.0076 35.6953C36.992 35.7422 36.9686 35.7812 36.9373 35.8125C36.3436 36.1562 35.7342 36.4766 35.1092 36.7734C34.4842 37.0703 33.8436 37.3438 33.1873 37.5938C33.1561 37.625 33.1326 37.6562 33.117 37.6875C33.1014 37.7188 33.0936 37.7656 33.0936 37.8281C33.4686 38.5156 33.8592 39.1953 34.2654 39.8672C34.6717 40.5391 35.1092 41.1875 35.5779 41.8125C35.5779 41.8438 35.5936 41.8594 35.6248 41.8594C35.6561 41.8594 35.6873 41.8594 35.7186 41.8594C37.6873 41.2656 39.6717 40.4844 41.6717 39.5156C43.6717 38.5469 45.6873 37.3125 47.7186 35.8125C47.7498 35.7812 47.7732 35.7578 47.7889 35.7422C47.8045 35.7266 47.8123 35.7031 47.8123 35.6719C48.0623 33.1094 48.0779 30.6094 47.8592 28.1719C47.6717 25.7656 47.2732 23.4219 46.6639 21.1406C46.0545 18.8594 45.2498 16.6562 44.2498 14.5312C43.2498 12.4062 42.0623 10.3594 40.6873 8.39062C40.6873 8.35938 40.6795 8.33594 40.6639 8.32031C40.6482 8.30469 40.6404 8.29688 40.6404 8.29688ZM16.0311 30.2344C14.8436 30.2344 13.8279 29.7578 12.9842 28.8047C12.1404 27.8516 11.7186 26.7188 11.7186 25.4062C11.7186 24.0625 12.1404 22.9219 12.9842 21.9844C13.8279 21.0469 14.8436 20.5781 16.0311 20.5781C17.2498 20.5781 18.2811 21.0469 19.1248 21.9844C19.9686 22.9219 20.3748 24.0625 20.3436 25.4062C20.3436 26.7188 19.9295 27.8516 19.1014 28.8047C18.2732 29.7578 17.2498 30.2344 16.0311 30.2344ZM31.9686 30.2344C30.8123 30.2344 29.8045 29.7578 28.9451 28.8047C28.0857 27.8516 27.6561 26.7188 27.6561 25.4062C27.6561 24.0625 28.0779 22.9219 28.9217 21.9844C29.7654 21.0469 30.7811 20.5781 31.9686 20.5781C33.1873 20.5781 34.2186 21.0469 35.0623 21.9844C35.9061 22.9219 36.3123 24.0625 36.2811 25.4062C36.2811 26.7188 35.867 27.8516 35.0389 28.8047C34.2107 29.7578 33.1873 30.2344 31.9686 30.2344Z" fill="#5865F2"/>
</g>
<defs>
<clipPath id="clip0_204_1849">
<rect width="48" height="48" fill="white" transform="matrix(1 0 0 -1 0 48)"/>
</clipPath>
</defs>
</svg>
