<svg width="19" height="19" viewBox="0 0 19 19" fill="none" xmlns="http://www.w3.org/2000/svg">
<path d="M16.7207 4.73714C16.7187 4.67344 16.7001 4.61138 16.6669 4.55703C16.6336 4.50269 16.5868 4.45793 16.531 4.42715C16.4752 4.39638 16.4124 4.38065 16.3486 4.38152C16.285 4.38238 16.2226 4.39981 16.1676 4.43208C15.67 4.72232 14.8956 5.09698 14.2107 5.09698C13.8989 5.09698 13.5821 5.04959 13.2563 4.95038C13.0514 4.88934 12.8514 4.81286 12.658 4.72159C11.6674 4.24846 10.7574 3.41327 9.92146 2.58253C9.78355 2.44663 9.59825 2.36963 9.40464 2.3678C9.21105 2.36963 9.02574 2.44663 8.88783 2.58253C8.05191 3.41327 7.14193 4.24846 6.15125 4.72159C5.95821 4.81297 5.75772 4.88946 5.55299 4.95038C5.22721 5.04959 4.90958 5.09698 4.5986 5.09698C3.91371 5.09698 3.13924 4.72159 2.64168 4.43208C2.58674 4.39981 2.52435 4.38238 2.46064 4.38152C2.39693 4.38065 2.33408 4.39638 2.27829 4.42715C2.2225 4.45793 2.17567 4.50269 2.14241 4.55703C2.10915 4.61138 2.0906 4.67344 2.08859 4.73714C2.04342 5.8759 2.03158 8.32075 2.598 10.2488C3.63383 13.7754 5.91507 16.1544 9.19511 17.1287L9.29877 17.1591L9.40242 17.1487H9.40464L9.51053 17.1591L9.61418 17.1287C12.8943 16.1544 15.1755 13.7754 16.2113 10.2488C16.7777 8.32075 16.7651 5.8759 16.7207 4.73714Z" fill="url(#paint0_linear_334_35)"/>
<defs>
<linearGradient id="paint0_linear_334_35" x1="9.4045" y1="2.3678" x2="9.4045" y2="17.1591" gradientUnits="userSpaceOnUse">
<stop stop-color="#72AB6C"/>
<stop offset="1" stop-color="#99C894"/>
</linearGradient>
</defs>
</svg>
