<svg width="42" height="49" viewBox="0 0 42 49" fill="none" xmlns="http://www.w3.org/2000/svg">
<path d="M31.0352 0.77002H22.9727V33.4888C22.9727 35.4263 22.293 37.0903 20.9336 38.481C19.5742 39.8716 17.9258 40.5669 15.9883 40.5669C14.0508 40.5669 12.4023 39.8716 11.043 38.481C9.68359 37.0903 9.00391 35.4263 9.00391 33.4888C9.00391 31.5513 9.66797 29.895 10.9961 28.52C12.3242 27.145 13.9102 26.4263 15.7539 26.3638V18.1606C13.7227 18.1919 11.8008 18.6138 9.98828 19.4263C8.17578 20.2388 6.59766 21.3325 5.25391 22.7075C3.91016 24.0825 2.84766 25.6919 2.06641 27.5356C1.28516 29.3794 0.894531 31.3638 0.894531 33.4888C0.894531 35.5825 1.30078 37.5669 2.11328 39.4419C2.89453 41.2856 3.97266 42.9028 5.34766 44.2935C6.72266 45.6841 8.33203 46.77 10.1758 47.5513C11.9883 48.3638 13.9414 48.77 16.0352 48.77C18.1289 48.77 20.0977 48.3638 21.9414 47.5513C23.7852 46.7388 25.3945 45.645 26.7695 44.27C28.1445 42.895 29.2227 41.27 30.0039 39.395C30.7852 37.5513 31.1758 35.5825 31.1758 33.4888V16.7075C32.707 17.8013 34.3867 18.6685 36.2148 19.3091C38.043 19.9497 39.9414 20.2856 41.9102 20.3169V12.1138C40.3789 12.0513 38.957 11.7231 37.6445 11.1294C36.332 10.5044 35.1836 9.68408 34.1992 8.66846C33.2148 7.65283 32.4414 6.45752 31.8789 5.08252C31.3164 3.73877 31.0352 2.30127 31.0352 0.77002Z" fill="#FF005C"/>
</svg>
