<svg width="49" height="49" viewBox="0 0 49 49" fill="none" xmlns="http://www.w3.org/2000/svg">
<g clip-path="url(#clip0_204_1857)">
<path d="M48.0508 15.1606C48.0508 15.1606 47.9102 14.5513 47.6289 13.3325C47.3477 12.1138 46.8477 11.145 46.1289 10.4263C45.2227 9.45752 44.3086 8.88721 43.3867 8.71533C42.4648 8.54346 41.7695 8.42627 41.3008 8.36377C39.6445 8.23877 37.832 8.14502 35.8633 8.08252C33.8945 8.02002 32.0742 7.97314 30.4023 7.94189C28.7305 7.91064 27.332 7.89502 26.207 7.89502C25.082 7.89502 24.5195 7.89502 24.5195 7.89502C24.5195 7.89502 23.957 7.89502 22.832 7.89502C21.707 7.89502 20.3086 7.91064 18.6367 7.94189C16.9648 7.97314 15.1445 8.02002 13.1758 8.08252C11.207 8.14502 9.39453 8.23877 7.73828 8.36377C7.26953 8.42627 6.57422 8.54346 5.65234 8.71533C4.73047 8.88721 3.81641 9.45752 2.91016 10.4263C2.19141 11.145 1.69141 12.1138 1.41016 13.3325C1.12891 14.5513 0.988281 15.1606 0.988281 15.1606C0.988281 15.1606 0.910156 15.9731 0.753906 17.5981C0.597656 19.2231 0.519531 21.0044 0.519531 22.9419V26.5981C0.519531 28.5356 0.597656 30.3091 0.753906 31.9185C0.910156 33.5278 0.988281 34.3325 0.988281 34.3325C0.988281 34.3325 1.12891 34.9497 1.41016 36.1841C1.69141 37.4185 2.19141 38.395 2.91016 39.1138C3.81641 40.0825 4.79297 40.645 5.83984 40.8013C6.88672 40.9575 7.67578 41.0825 8.20703 41.1763C9.17578 41.27 10.5664 41.3481 12.3789 41.4106C14.1914 41.4731 15.9961 41.52 17.793 41.5513C19.5898 41.5825 21.1602 41.6138 22.5039 41.645C23.8477 41.645 24.5195 41.645 24.5195 41.645C24.5195 41.645 25.082 41.645 26.207 41.645C27.332 41.645 28.7305 41.6216 30.4023 41.5747C32.0742 41.5278 33.8945 41.4731 35.8633 41.4106C37.832 41.3481 39.6602 41.2544 41.3477 41.1294C41.8164 41.0981 42.5039 40.9966 43.4102 40.8247C44.3164 40.6528 45.2227 40.0825 46.1289 39.1138C46.8477 38.395 47.3477 37.4185 47.6289 36.1841C47.9102 34.9497 48.0508 34.3325 48.0508 34.3325C48.0508 34.3325 48.1289 33.5278 48.2852 31.9185C48.4414 30.3091 48.5195 28.5356 48.5195 26.5981V22.9419C48.5195 21.0044 48.4414 19.2231 48.2852 17.5981C48.1289 15.9731 48.0508 15.1606 48.0508 15.1606ZM19.5508 31.0044V17.5044L32.5352 24.2544L19.5508 31.0044Z" fill="#F61E1E"/>
</g>
<defs>
<clipPath id="clip0_204_1857">
<rect width="48" height="48" fill="white" transform="matrix(1 0 0 -1 0.519531 48.77)"/>
</clipPath>
</defs>
</svg>
